<?xml version="1.0" encoding="UTF-8" standalone="no"?>
<svg
   version="1.0"
   width="48"
   height="47.90313"
   viewBox="0 0 36 35.927347"
   preserveAspectRatio="xMidYMid meet"
   id="svg10"
   sodipodi:docname="paragraph.svg"
   inkscape:version="1.1.1 (3bf5ae0d25, 2021-09-20)"
   xmlns:inkscape="http://www.inkscape.org/namespaces/inkscape"
   xmlns:sodipodi="http://sodipodi.sourceforge.net/DTD/sodipodi-0.dtd"
   xmlns="http://www.w3.org/2000/svg"
   xmlns:svg="http://www.w3.org/2000/svg">
  <defs
     id="defs950" />
  <sodipodi:namedview
     id="namedview12"
     pagecolor="#505050"
     bordercolor="#eeeeee"
     borderopacity="1"
     inkscape:pageshadow="0"
     inkscape:pageopacity="0"
     inkscape:pagecheckerboard="0"
     inkscape:document-units="pt"
     showgrid="false"
     units="px"
     fit-margin-top="0"
     fit-margin-left="0"
     fit-margin-right="0"
     fit-margin-bottom="0"
     inkscape:zoom="3.8234165"
     inkscape:cx="-73.102159"
     inkscape:cy="43.678213"
     inkscape:window-width="1814"
     inkscape:window-height="1051"
     inkscape:window-x="-9"
     inkscape:window-y="-9"
     inkscape:window-maximized="1"
     inkscape:current-layer="svg10" />
  <path
     id="path4"
     style="fill:#000000;stroke:none;stroke-width:0.00727271"
     d="M 0 0 L 0 12.7273 L 0 25.4546 L 3.73818 25.4546 C 6.04363 25.4546 7.49818 25.4255 7.52727 25.3819 C 7.54909 25.3455 7.61454 25.331 7.66545 25.3528 C 7.82545 25.411 9.96371 25.4254 9.96371 25.3673 C 9.96371 25.3382 10.0073 25.331 10.0582 25.3528 C 10.1164 25.3746 10.2546 25.3964 10.371 25.4037 C 10.5383 25.4182 10.5819 25.4545 10.5746 25.5854 C 10.5746 25.6727 10.5964 25.7455 10.6255 25.7455 C 10.6546 25.7455 10.6546 25.84 10.6183 25.9564 C 10.5892 26.0655 10.5892 26.2036 10.6183 26.2618 C 10.6547 26.3127 10.6547 26.4073 10.6183 26.4728 C 10.5819 26.5382 10.5819 26.6327 10.6109 26.6764 C 10.64 26.7273 10.6473 26.9309 10.6183 27.1273 C 10.5892 27.3237 10.5964 27.5274 10.6255 27.5783 C 10.6546 27.6219 10.6546 27.7164 10.6183 27.7819 C 10.5819 27.8473 10.5819 27.9419 10.6183 28 C 10.6547 28.0582 10.6547 28.1528 10.6183 28.2182 C 10.5819 28.2837 10.5819 28.3782 10.6183 28.4364 C 10.6474 28.4873 10.6474 28.611 10.6183 28.6983 C 10.5747 28.8001 10.5819 28.8873 10.6183 28.9091 C 10.6547 28.9309 10.6547 29.0401 10.6183 29.1637 C 10.5819 29.2873 10.5819 29.3819 10.6183 29.3819 C 10.6547 29.3819 10.6547 29.4764 10.6183 29.6001 C 10.5819 29.7237 10.5819 29.8183 10.6183 29.8183 C 10.6547 29.8183 10.6547 29.9128 10.6183 30.0364 C 10.5819 30.1528 10.5746 30.2546 10.6037 30.2546 C 10.6328 30.2546 10.6546 30.3709 10.6546 30.5091 C 10.6546 30.6473 10.6328 30.7636 10.6037 30.7636 C 10.5746 30.7636 10.5819 30.8582 10.6183 30.9818 C 10.6547 31.0982 10.6547 31.2 10.6183 31.2 C 10.5892 31.2 10.5819 31.2874 10.6109 31.3965 C 10.64 31.5128 10.6401 31.7164 10.6183 31.8691 C 10.5892 32.0146 10.5892 32.1746 10.6255 32.2255 C 10.6546 32.2764 10.6546 32.371 10.6183 32.4364 C 10.5819 32.5019 10.5819 32.5964 10.6183 32.6546 C 10.6547 32.7128 10.6547 32.8073 10.6183 32.8728 C 10.5819 32.9383 10.5819 33.0328 10.6183 33.091 C 10.6474 33.1419 10.6474 33.2655 10.6183 33.3527 C 10.5747 33.4546 10.5819 33.5419 10.6183 33.5637 C 10.6547 33.5855 10.6547 33.6945 10.6183 33.8182 C 10.5819 33.9418 10.5819 34.0364 10.6183 34.0364 C 10.6547 34.0364 10.6547 34.1309 10.6183 34.2545 C 10.5819 34.3782 10.5819 34.4727 10.6183 34.4727 C 10.6547 34.4727 10.6547 34.5673 10.6183 34.6909 C 10.5819 34.8073 10.5746 34.9091 10.6037 34.9091 C 10.6619 34.9091 10.6546 35.4037 10.5965 35.4619 C 10.5747 35.4837 10.582 35.5782 10.6183 35.6727 C 10.6547 35.7673 10.6619 35.8618 10.6401 35.8837 C 10.611 35.9055 16.3128 35.9273 23.2946 35.9273 L 36 35.9273 L 36 22.5455 L 36 9.16364 L 34.7273 9.16364 L 33.4546 9.16364 L 33.4546 21.2873 L 33.4546 33.4183 L 28.5673 33.3964 C 25.8764 33.3891 22.9382 33.3819 22.0364 33.3892 C 21.1345 33.3892 20.3491 33.3964 20.2909 33.3964 C 20.2327 33.3891 18.6327 33.3892 16.7491 33.3892 L 13.3091 33.3818 L 13.3091 29.3819 L 13.3091 25.3746 L 13.5491 25.3818 C 13.6727 25.3818 13.9492 25.3818 14.1601 25.3746 C 14.371 25.3746 14.5746 25.3891 14.6109 25.4109 C 14.6473 25.44 14.6982 25.4255 14.7273 25.3819 C 14.7564 25.3382 14.8074 25.3237 14.8437 25.3528 C 14.9092 25.3891 17.5564 25.4037 18.1091 25.36 C 18.2473 25.3527 18.4364 25.3673 18.5237 25.3964 C 18.611 25.4255 18.7055 25.4182 18.7273 25.3746 C 18.7564 25.3382 18.8073 25.3236 18.8436 25.3527 C 18.8873 25.3745 19.091 25.3963 19.2946 25.3891 C 19.5055 25.3818 19.7455 25.3819 19.8401 25.3819 C 20.1746 25.3819 21.4255 25.1637 21.9273 25.0183 C 22.4364 24.8655 22.56 24.8364 22.7637 24.7855 C 22.8219 24.7782 22.8873 24.7491 22.9091 24.7273 C 22.9309 24.7055 23.2073 24.56 23.5201 24.4073 C 24.1382 24.1164 24.7782 23.7019 25.1127 23.3891 C 25.2218 23.2873 25.3382 23.2001 25.3673 23.1928 C 25.4545 23.1855 26.2037 22.2619 26.5018 21.7964 C 26.8146 21.3164 27.3382 20.0655 27.3455 19.811 C 27.3455 19.731 27.3673 19.6364 27.3964 19.6073 C 27.4255 19.5782 27.4546 19.4327 27.4618 19.28 C 27.4618 19.1273 27.491 18.9601 27.5273 18.9092 C 27.6437 18.7201 27.5928 16.371 27.4546 15.7455 C 27.3891 15.4255 27.3237 15.1127 27.3092 15.0545 C 27.2946 14.96 27.2073 14.7127 27.0764 14.4 C 27.0546 14.3418 27.0255 14.2546 27.0255 14.2182 C 27.0036 14.0582 26.5382 13.2437 26.2255 12.8292 C 25.2219 11.4837 23.3019 10.2764 21.6364 9.92003 C 20.3346 9.64366 20.3564 9.65093 15.4473 9.62184 L 10.6327 9.59275 L 10.6037 9.81093 C 10.5818 9.93457 10.5964 10.0364 10.6255 10.0364 C 10.6546 10.0364 10.6546 10.1309 10.6183 10.2545 C 10.5819 10.3782 10.5819 10.4727 10.6183 10.4727 C 10.6547 10.4727 10.6547 10.5673 10.6183 10.6909 C 10.5819 10.8145 10.5819 10.9091 10.6183 10.9091 C 10.6547 10.9091 10.6547 11.0037 10.6183 11.12 C 10.5892 11.2291 10.5892 11.3673 10.6183 11.4255 C 10.6547 11.4764 10.6547 11.5709 10.6183 11.6364 C 10.5819 11.7019 10.5819 11.7964 10.6183 11.8546 C 10.6547 11.9128 10.6547 12.0073 10.6183 12.0728 C 10.5819 12.1382 10.5819 12.2328 10.6183 12.2909 C 10.6547 12.3491 10.6547 12.4436 10.6183 12.5164 C 10.5819 12.5818 10.5674 12.6546 10.5965 12.6764 C 10.6474 12.7346 10.6546 13.4473 10.5965 13.4982 C 10.5746 13.52 10.5892 13.6364 10.6183 13.7528 C 10.6547 13.8692 10.6547 13.9782 10.6183 14.0001 C 10.5892 14.0219 10.5892 14.1455 10.6183 14.2837 C 10.6474 14.4218 10.6474 14.5745 10.6183 14.6182 C 10.5892 14.6691 10.5892 14.8 10.6183 14.9164 C 10.6547 15.0255 10.6546 15.1345 10.6328 15.1636 C 10.5746 15.2145 10.5965 15.9055 10.6546 16 C 10.6765 16.0437 10.6692 16.0728 10.6256 16.0728 C 10.5819 16.0728 10.5819 16.1528 10.6184 16.291 C 10.6547 16.4146 10.6547 16.5092 10.6184 16.5092 C 10.582 16.5092 10.582 16.6037 10.6184 16.7273 C 10.6547 16.851 10.6547 16.9455 10.6184 16.9455 C 10.582 16.9455 10.582 17.0401 10.6184 17.1637 C 10.6547 17.2873 10.6547 17.3819 10.6184 17.3819 C 10.582 17.3819 10.582 17.4764 10.6184 17.6001 C 10.6547 17.7237 10.6547 17.8182 10.6184 17.8182 C 10.582 17.8182 10.582 17.9128 10.6184 18.0364 C 10.6547 18.1601 10.6547 18.2546 10.6184 18.2546 C 10.582 18.2546 10.582 18.3492 10.6184 18.4728 C 10.6547 18.5964 10.6547 18.691 10.6184 18.691 C 10.582 18.691 10.582 18.7855 10.6184 18.9092 C 10.6547 19.0328 10.6547 19.1273 10.6184 19.1273 C 10.582 19.1273 10.582 19.2219 10.6184 19.3455 C 10.6547 19.4692 10.6547 19.5637 10.6184 19.5637 C 10.582 19.5637 10.5675 19.6073 10.5893 19.6654 C 10.6547 19.84 10.6619 20.24 10.6038 20.4146 C 10.531 20.64 10.6983 20.7419 11.142 20.7346 C 12.0438 20.7128 12.2184 20.72 12.2838 20.7563 C 12.3202 20.7854 12.3711 20.771 12.3929 20.7346 C 12.422 20.6983 12.5238 20.6909 12.6256 20.72 C 12.7347 20.7491 12.931 20.7564 13.0619 20.7419 L 13.3092 20.7128 L 13.2947 16.3855 L 13.2729 12.0582 L 16.6547 12.0946 C 19.9492 12.131 20.5965 12.1745 20.9311 12.3854 C 20.9747 12.4218 21.0183 12.4291 21.0183 12.4073 C 21.0183 12.3346 21.8474 12.6619 22.2474 12.8873 C 23.5492 13.6146 24.2984 14.5819 24.662 16 C 24.8656 16.7782 24.8583 18.2909 24.6546 19.0837 C 24.4582 19.8618 24.0583 20.6546 23.6292 21.1055 C 23.4328 21.3164 23.2729 21.5127 23.2729 21.5418 C 23.2729 21.5709 23.2292 21.6 23.1783 21.6 C 23.1273 21.6 23.0182 21.6582 22.9382 21.7309 C 22.8 21.8473 22.7055 21.9055 22.2255 22.1745 C 21.8764 22.3709 21.1855 22.6182 20.5091 22.7855 C 19.9055 22.931 19.7165 22.9382 11.2219 22.96 L 2.54558 22.9891 L 2.54558 12.7346 L 2.54558 2.47276 L 14.6547 2.47276 L 26.7638 2.47276 L 26.7638 1.23643 L 26.7638 0 L 13.3819 0 Z M 29.3819 0 L 29.3819 1.23643 L 29.3819 2.47276 L 31.4182 2.47276 L 33.4546 2.47276 L 33.4546 4.50916 L 33.4546 6.54545 L 34.7273 6.54545 L 36 6.54545 L 36 3.27273 L 36 0 L 32.6909 0 Z" />
</svg>
